<?xml version="1.0" ?><!DOCTYPE svg  PUBLIC '-//W3C//DTD SVG 1.1//EN'  'http://www.w3.org/Graphics/SVG/1.1/DTD/svg11.dtd'><svg enable-background="new 0 0 100 100" height="100px" id="Layer_1" version="1.1" viewBox="0 0 100 100" width="100px" xml:space="preserve" xmlns="http://www.w3.org/2000/svg" xmlns:xlink="http://www.w3.org/1999/xlink"><g id="guides"/><rect height="59.32203" width="60.16949" style="fill: #ffffff" x="22.45762" y="19.91525"/><path style="fill: #3276b1" d="M50,5C25.147,5,5,25.147,5,50c0,24.854,20.147,45,45,45c24.854,0,45-20.146,45-45C95,25.147,74.854,5,50,5z M39.475,42.535  c0,0,7.816-6.889,11.13-9.082c1.998-1.328,4.728-0.557,4.947,1.542c0.051,1.11,0.032,3.961,0.032,3.961l-16.11,16.167V42.535z   M30.976,44.211c0-0.552,0.448-1,1-1h3c0.552,0,1,0.448,1,1v13c0,0.553-0.448,1-1,1h-3c-0.552,0-1-0.447-1-1V44.211z M55.58,65.471  c0.231,3.135-3.101,3.845-4.712,2.601c-0.743-0.321-7.563-5.945-7.563-5.945l12.321-12.329  C55.626,49.797,55.541,63.855,55.58,65.471z M64.518,66.702c-2.101,2.088-5.226-0.787-4.332-3.25  c3.439-3.932,6.48-11.619,2.528-20.723c0.938-1.031,2.616-2.795,4.13-4.245C73.156,49.344,68.906,62.594,64.518,66.702z   M73.637,29.398L29.271,73.762c-1.107,1.108-2.678,1.332-3.507,0.502c-0.83-0.83-0.605-2.401,0.502-3.508l44.366-44.364  c1.107-1.107,2.678-1.332,3.508-0.502C74.97,26.72,74.744,28.29,73.637,29.398z"/></svg>